<svg width="686" height="526" viewBox="0 0 686 526" fill="none"
      xmlns="http://www.w3.org/2000/svg">
      <g clip-path="url(#clip0_5356_46657)">
            <path d="M631.375 192.16H605.199V288.562H631.375V192.16Z" fill="#F76652"/>
            <path d="M627.478 201.55H609.063V262.927H627.478V201.55Z" fill="#FAFDFF"/>
            <path d="M621.724 278.258C623.626 276.354 623.626 273.269 621.724 271.365C619.822 269.462 616.737 269.462 614.835 271.365C612.932 273.269 612.932 276.354 614.835 278.258C616.737 280.161 619.822 280.161 621.724 278.258Z" fill="#2E3D63"/>
            <path d="M656.432 190.881L630.455 194.103L642.307 289.773L668.284 286.551L656.432 190.881Z" fill="#F76652"/>
            <path d="M653.707 200.652L635.433 202.918L642.979 263.828L661.253 261.562L653.707 200.652Z" fill="#FAFDFF"/>
            <path d="M657.41 277.529C659.054 275.399 658.661 272.338 656.531 270.693C654.402 269.048 651.343 269.442 649.699 271.573C648.055 273.703 648.448 276.764 650.577 278.409C652.707 280.053 655.766 279.66 657.41 277.529Z" fill="#2E3D63"/>
            <path d="M287.936 301.754C282.902 276.93 263.254 179.78 257.051 149.401C255.979 144.072 251.27 140.238 245.847 140.238L152.022 140.141L184.726 312.119C186.35 320.567 191.156 328.105 198.171 333.076C203.692 337.007 210.285 339.152 217.073 339.249L287.936 340.127V301.754Z" fill="#475577"/>
            <path d="M371.595 345.098H215.481C205.738 345.098 196.288 341.654 188.786 335.415C181.316 329.177 176.282 320.534 174.593 311.046L146.112 147.191C145.527 143.844 147.768 140.66 151.113 140.108C154.458 139.523 157.641 141.765 158.193 145.112L186.675 308.967C187.844 315.563 191.384 321.639 196.645 326.025C201.939 330.444 208.629 332.848 215.481 332.848H371.628C375.006 332.848 377.766 335.61 377.766 338.989C377.734 342.368 375.006 345.098 371.595 345.098Z" fill="#727B91"/>
            <path d="M419.401 525.881C528.31 525.881 616.598 521.91 616.598 517.011C616.598 512.112 528.31 508.141 419.401 508.141C310.492 508.141 222.204 512.112 222.204 517.011C222.204 521.91 310.492 525.881 419.401 525.881Z" fill="#E1E7F7"/>
            <path d="M418.329 469.451L395.07 474.824L401.997 504.838L425.256 499.464L418.329 469.451Z" fill="#FFCBBB"/>
            <path d="M395.011 474.837L397.609 486.046L419.271 473.635L418.297 469.476L395.011 474.837Z" fill="#F6AF9B"/>
            <path d="M438.367 495.111C437.718 495.111 437.133 494.981 436.613 494.656L436.418 494.527L436.483 494.299C437.555 490.303 440.543 486.761 442.849 484.519C443.823 483.544 446.356 481.465 448.662 482.602C450.416 483.479 450.838 485.916 450.124 487.606C449.409 489.36 447.85 490.53 446.421 491.472L445.999 491.732C443.953 493.064 440.835 495.111 438.367 495.111ZM437.198 494.202C439.439 495.241 443.466 492.609 445.674 491.18L446.096 490.92C447.428 490.043 448.889 488.938 449.571 487.346C450.156 485.916 449.831 483.902 448.402 483.187C446.486 482.212 444.245 484.129 443.368 484.974C441.095 487.118 438.27 490.465 437.198 494.202Z" fill="#350453"/>
            <path d="M436.484 495.631L436.354 495.404C434.243 491.862 433.821 487.249 433.788 483.999C433.788 482.635 434.048 479.353 436.484 478.508C438.335 477.858 440.348 479.256 441.095 480.945C441.842 482.7 441.615 484.617 441.258 486.306L441.16 486.794C440.576 489.783 439.601 494.819 436.711 495.566L436.484 495.631ZM437.458 479.028C437.198 479.028 436.971 479.061 436.711 479.158C434.697 479.84 434.47 482.797 434.47 484.032C434.47 487.119 434.892 491.472 436.808 494.884C439.114 494.007 440.056 489.296 440.543 486.696L440.641 486.209C440.965 484.649 441.193 482.83 440.511 481.238C439.991 480.068 438.757 479.028 437.458 479.028Z" fill="#350453"/>
            <path d="M464.9 501.35L437.978 494.722C433.983 493.747 430.281 491.57 427.293 488.451L422.714 483.707C422.714 483.707 417.387 488.256 418.849 497.126C419.693 502.325 405.079 503.397 401.214 501.707C401.214 501.707 401.182 501.707 401.117 501.74C399.883 502.325 399.233 503.722 399.558 505.054L402.253 516.686C402.513 517.758 403.553 518.408 404.624 518.181L465.03 504.242C466.362 503.852 466.297 501.707 464.9 501.35Z" fill="#2E3D63"/>
            <path d="M405.663 514.152C405.501 514.152 405.371 514.054 405.339 513.892C405.306 513.729 405.404 513.534 405.599 513.502L457.853 501.415C458.015 501.382 458.21 501.48 458.243 501.675C458.275 501.837 458.178 502.032 457.983 502.065L405.728 514.152C405.696 514.152 405.663 514.152 405.663 514.152Z" fill="white"/>
            <path d="M434.34 505.184C434.308 505.184 434.308 505.184 434.275 505.184C429.793 504.404 425.734 501.188 423.948 497.029C422.616 493.942 422.519 490.27 423.655 486.989C423.72 486.826 423.915 486.729 424.078 486.794C424.24 486.859 424.337 487.054 424.272 487.216C423.201 490.335 423.298 493.844 424.565 496.769C426.253 500.765 430.118 503.787 434.372 504.534C434.535 504.567 434.665 504.729 434.632 504.924C434.632 505.087 434.502 505.184 434.34 505.184Z" fill="white"/>
            <path d="M311.612 473.83H287.741V504.632H311.612V473.83Z" fill="#FFCBBB"/>
            <path d="M287.741 473.83V485.332L311.644 478.119V473.83H287.741Z" fill="#F6AF9B"/>
            <path d="M326.713 503.462C325.577 503.462 324.537 503.203 323.823 502.52L323.66 502.358L323.79 502.13C325.739 498.491 329.441 495.697 332.202 494.04C333.371 493.325 336.294 491.83 338.275 493.487C339.769 494.755 339.639 497.192 338.567 498.686C337.463 500.246 335.677 501.026 334.085 501.61L333.631 501.773C331.844 502.423 329.019 503.462 326.713 503.462ZM324.472 502.228C326.421 503.755 330.935 502.098 333.403 501.188L333.858 501.026C335.352 500.473 337.041 499.726 338.015 498.329C338.924 497.062 339.054 495.015 337.82 494.007C336.164 492.643 333.566 493.975 332.494 494.625C329.896 496.184 326.388 498.816 324.472 502.228Z" fill="#350453"/>
            <path d="M323.498 503.43L323.433 503.202C322.166 499.271 322.784 494.689 323.498 491.505C323.79 490.173 324.797 487.021 327.33 486.762C329.279 486.534 330.935 488.354 331.26 490.173C331.585 492.025 330.935 493.877 330.221 495.437L330.026 495.892C328.857 498.491 326.681 503.365 323.725 503.43H323.498ZM327.655 487.411C327.59 487.411 327.493 487.411 327.428 487.411C325.284 487.639 324.44 490.433 324.148 491.635C323.466 494.657 322.881 498.978 323.985 502.715C326.421 502.39 328.402 497.971 329.474 495.599L329.669 495.144C330.318 493.682 330.968 491.96 330.643 490.271C330.383 488.873 329.116 487.411 327.655 487.411Z" fill="#350453"/>
            <path d="M349.901 515.419L325.154 502.877C321.484 501.025 318.367 498.069 316.126 494.364L312.748 488.711C312.748 488.711 306.545 491.96 305.961 500.928C305.603 506.159 291.119 503.949 287.774 501.415C287.774 501.415 287.741 501.415 287.676 501.415C286.345 501.708 285.403 502.91 285.403 504.307V516.231C285.403 517.336 286.28 518.213 287.384 518.213H349.382C350.746 518.181 351.168 516.069 349.901 515.419Z" fill="#2E3D63"/>
            <path d="M342.984 514.542H289.333C289.138 514.542 289.008 514.379 289.008 514.217C289.008 514.022 289.17 513.892 289.333 513.892H342.984C343.179 513.892 343.309 514.055 343.309 514.217C343.309 514.412 343.146 514.542 342.984 514.542Z" fill="white"/>
            <path d="M319.309 512.267C319.276 512.267 319.211 512.267 319.179 512.235C314.989 510.48 311.774 506.419 310.962 501.967C310.378 498.653 311.092 495.047 312.943 492.123C313.041 491.96 313.235 491.928 313.398 492.025C313.56 492.123 313.593 492.317 313.495 492.48C311.742 495.274 311.06 498.718 311.612 501.87C312.391 506.126 315.444 509.96 319.438 511.65C319.601 511.715 319.698 511.91 319.601 512.072C319.568 512.202 319.438 512.267 319.309 512.267Z" fill="white"/>
            <path d="M391.926 273.648C385.496 280.179 374.681 279.269 366.075 275.955C365.88 275.89 365.653 275.793 365.458 275.728C351.363 270.074 339.379 259.384 332.104 246.095C331.942 245.803 331.78 245.51 331.617 245.218C325.901 234.366 314.892 181.08 340.743 186.961C350.843 189.267 361.463 202.914 368.056 210.257C376.565 219.745 384.034 230.207 390.237 241.352C393.063 246.42 395.661 251.749 396.44 257.5C397.22 263.251 395.986 269.489 391.926 273.648Z" fill="#FFCBBB"/>
            <path d="M366.075 275.955C365.88 275.89 365.652 275.793 365.458 275.728C351.363 270.074 339.379 259.384 332.104 246.095C332.916 245.835 333.728 245.576 334.443 245.283C339.476 243.204 344.543 241.092 349.577 239.012C349.771 252.854 355.974 266.468 366.075 275.955Z" fill="#F6AF9B"/>
            <path d="M317.36 185.466H270.334L274.264 173.574C275.173 170.78 277.804 168.896 280.726 168.896H307C309.955 168.896 312.553 170.78 313.463 173.574L317.36 185.466Z" fill="#B9B5B2"/>
            <path d="M342.821 296.783C324.927 314.685 241.592 296.783 241.592 296.783L249.744 228.713L241.43 186.278C241.43 180.332 246.269 175.491 252.212 175.491H331.877C337.82 175.491 342.659 180.332 342.659 186.278C342.627 186.246 362.307 277.223 342.821 296.783Z" fill="#B9B5B2"/>
            <path d="M423.98 469.996L393.355 478.346C389.685 479.353 385.95 477.014 385.203 473.277L357.728 334.538H320.803C296.088 333.888 285.598 320.339 285.598 306.335L281.668 292.559C281.214 292.104 351.688 289.342 381.014 290.447C393.128 290.902 403.325 299.642 405.663 311.534L428.722 462.393C429.339 465.772 427.293 469.086 423.98 469.996Z" fill="#FCA32D"/>
            <path d="M278.648 334.635H358.085L278.648 318.877V334.635Z" fill="#EF8E18"/>
            <path d="M322.296 309.097V469.67C322.296 473.277 319.374 476.234 315.736 476.234H283.617C279.98 476.234 277.057 473.31 277.057 469.67L275.888 445.757L270.497 334.538H247.99C245.295 334.473 242.794 334.245 240.423 333.888C221.1 330.931 212.786 318.844 212.786 306.335L222.626 287.977C222.139 287.49 275.66 289.472 304.467 290.576C314.437 290.934 322.296 299.122 322.296 309.097Z" fill="#FFB548"/>
            <path d="M308.624 413.623C308.429 413.623 308.299 413.46 308.299 413.298L310.832 316.57C310.832 308.382 305.279 301.364 297.322 299.447C297.16 299.414 297.03 299.219 297.095 299.057C297.127 298.895 297.322 298.765 297.484 298.83C305.733 300.812 311.514 308.09 311.514 316.603L308.981 413.33C308.949 413.46 308.819 413.623 308.624 413.623Z" fill="#FCA32D"/>
            <path d="M307.227 467.396C307.032 467.396 306.903 467.234 306.903 467.071L307.877 430.323C307.877 430.128 308.039 429.998 308.202 429.998C308.396 429.998 308.526 430.161 308.526 430.323L307.552 467.071C307.552 467.234 307.39 467.396 307.227 467.396Z" fill="#FCA32D"/>
            <path d="M392.283 324.27C392.121 324.27 391.991 324.173 391.958 324.01L391.406 321.151C390.627 317.122 388.841 313.321 386.275 310.169C381.793 304.613 375.103 301.234 367.991 300.876L353.149 300.129C352.954 300.129 352.824 299.967 352.824 299.772C352.824 299.577 352.954 299.447 353.181 299.447L368.023 300.194C375.33 300.551 382.183 304.028 386.795 309.747C389.425 312.996 391.244 316.895 392.056 321.021L392.608 323.913C392.64 324.075 392.543 324.27 392.348 324.303C392.316 324.27 392.316 324.27 392.283 324.27Z" fill="#EF8E18"/>
            <path d="M407.093 399.911C406.93 399.911 406.8 399.813 406.768 399.651L394.134 335.252C394.102 335.09 394.199 334.895 394.394 334.863C394.557 334.83 394.751 334.928 394.784 335.123L407.417 399.521C407.45 399.683 407.352 399.878 407.157 399.911C407.157 399.911 407.125 399.911 407.093 399.911Z" fill="#EF8E18"/>
            <path d="M416.738 449.006C416.575 449.006 416.446 448.908 416.413 448.746L408.164 406.702C408.132 406.539 408.229 406.344 408.424 406.312C408.619 406.279 408.781 406.377 408.814 406.572L417.063 448.616C417.095 448.778 416.998 448.973 416.803 449.006C416.77 449.006 416.77 449.006 416.738 449.006Z" fill="#EF8E18"/>
            <path d="M260.104 223.286C259 246.745 255.233 270.107 248.932 292.721C247.373 298.374 245.587 304.093 242.599 309.129C239.611 314.198 235.227 318.617 229.706 320.664C221.392 323.75 211.552 320.729 205.219 314.458C198.886 308.219 195.768 299.252 195.119 290.381C194.469 281.511 196.06 272.641 198.041 263.966C199.373 258.247 200.834 252.529 202.588 246.908C204.569 240.539 206.81 234.301 209.506 228.192C210.772 225.333 212.104 222.539 213.533 219.777C216.845 213.376 220.678 207.268 225.062 201.549C230.94 193.914 241.268 178.935 251.498 188.52C260.624 197.13 260.656 211.752 260.104 223.286Z" fill="#FFCBBB"/>
            <path d="M254.55 249.702L202.588 246.973C204.569 240.605 206.81 234.366 209.506 228.258L254.55 249.702Z" fill="#F6AF9B"/>
            <path d="M285.663 143.812L276.894 142.09L273.419 113.854C272.867 109.338 275.985 105.179 280.467 104.464L308.299 99.9805L307.877 110.67L285.663 143.812Z" fill="#2E3D63"/>
            <path d="M323.465 121.458C323.465 129.775 319.925 136.534 315.574 136.534C311.222 136.534 307.682 129.775 307.682 121.458C307.682 113.14 311.222 109.663 315.574 109.663C319.925 109.663 323.465 113.14 323.465 121.458Z" fill="#2E3D63"/>
            <path d="M307.39 121.782V152.747V171.884L296.965 178.448L281.311 171.884V152.747V121.782H294.334H307.39Z" fill="#FFCBBB"/>
            <path d="M307.39 154.274V169.967C302.843 165.386 295.633 158.303 291.509 154.274H307.39Z" fill="#F6AF9B"/>
            <path d="M317.23 109.858L321.387 145.956C322.524 155.996 312.846 163.826 303.298 160.545C296.023 158.043 289.398 154.469 288.586 149.79C286.962 140.497 288.099 120.483 288.488 114.796C288.553 113.887 289.203 113.139 290.112 112.944L314.859 108.103C315.996 107.876 317.1 108.688 317.23 109.858Z" fill="#FFCBBB"/>
            <path d="M323.401 115.414C316.743 118.696 297.16 115.382 293.75 108.493C290.372 101.605 302.258 92.7023 311.124 90.4604C318.334 88.6409 325.934 90.103 329.344 96.9588C332.754 103.814 330.091 112.132 323.401 115.414Z" fill="#2E3D63"/>
            <path d="M303.395 104.692C303.395 109.046 300.083 113.984 294.237 113.984C288.391 113.984 282.22 109.046 282.22 104.692C282.22 100.338 286.962 96.7964 292.808 96.7964C298.654 96.7964 303.395 100.338 303.395 104.692Z" fill="#2E3D63"/>
            <path d="M320.77 117.104H295.373C290.957 117.104 287.709 121.23 288.716 125.519L289.722 129.71C289.722 129.71 291.639 137.183 279.882 137.833L281.149 112.197H319.666L320.77 117.104Z" fill="#2E3D63"/>
            <path d="M276.862 125.194C276.764 125.194 276.667 125.162 276.602 125.064C276.505 124.934 276.537 124.707 276.667 124.61L285.013 118.371C285.143 118.274 285.371 118.306 285.468 118.436C285.566 118.566 285.533 118.794 285.403 118.891L277.057 125.129C276.992 125.194 276.927 125.194 276.862 125.194Z" fill="#727B91"/>
            <path d="M277.868 129.646C277.771 129.646 277.674 129.613 277.609 129.516C277.511 129.386 277.544 129.158 277.674 129.061L286.02 122.822C286.15 122.725 286.377 122.757 286.475 122.887C286.572 123.017 286.54 123.245 286.41 123.342L278.063 129.581C277.998 129.613 277.933 129.646 277.868 129.646Z" fill="#727B91"/>
            <path d="M280.986 146.151C284.466 146.151 287.287 143.329 287.287 139.848C287.287 136.367 284.466 133.544 280.986 133.544C277.507 133.544 274.686 136.367 274.686 139.848C274.686 143.329 277.507 146.151 280.986 146.151Z" fill="#FFCBBB"/>
            <path d="M284.591 140.27C284.429 140.27 284.299 140.14 284.266 140.01C284.007 138.483 282.74 137.151 281.246 136.826C279.752 136.501 278.031 137.183 277.186 138.451C277.089 138.613 276.894 138.646 276.732 138.548C276.569 138.451 276.537 138.256 276.634 138.093C277.641 136.566 279.622 135.786 281.376 136.176C283.162 136.566 284.591 138.093 284.883 139.913C284.916 140.108 284.786 140.27 284.624 140.303C284.656 140.27 284.624 140.27 284.591 140.27Z" fill="#350453"/>
            <path d="M278.258 141.765C278.128 141.765 277.998 141.667 277.933 141.537C277.284 139.62 278.193 137.346 279.947 136.339C280.109 136.241 280.304 136.306 280.402 136.469C280.499 136.631 280.434 136.826 280.272 136.924C278.81 137.768 278.031 139.75 278.55 141.342C278.615 141.505 278.518 141.7 278.356 141.765C278.323 141.732 278.291 141.765 278.258 141.765Z" fill="#350453"/>
            <path d="M303.427 132.083C304.055 132.083 304.564 131.573 304.564 130.945C304.564 130.317 304.055 129.808 303.427 129.808C302.8 129.808 302.291 130.317 302.291 130.945C302.291 131.573 302.8 132.083 303.427 132.083Z" fill="#350453"/>
            <path d="M314.892 132.083C315.519 132.083 316.028 131.573 316.028 130.945C316.028 130.317 315.519 129.808 314.892 129.808C314.264 129.808 313.755 130.317 313.755 130.945C313.755 131.573 314.264 132.083 314.892 132.083Z" fill="#350453"/>
            <path d="M300.818 124.863C303.51 124.101 305.506 122.825 305.277 122.014C305.047 121.202 302.679 121.162 299.986 121.924C297.294 122.687 295.298 123.963 295.527 124.774C295.757 125.586 298.125 125.626 300.818 124.863Z" fill="#2E3D63"/>
            <path d="M319.281 123.979C319.511 123.168 317.515 121.892 314.822 121.129C312.13 120.367 309.761 120.407 309.532 121.219C309.302 122.03 311.299 123.306 313.991 124.068C316.683 124.83 319.052 124.791 319.281 123.979Z" fill="#2E3D63"/>
            <path d="M309.663 141.115C309.5 141.115 309.371 141.017 309.338 140.855C309.306 140.692 309.403 140.498 309.598 140.465L312.358 139.848C312.683 139.62 312.813 139.198 312.716 138.808L308.851 124.967C308.818 124.804 308.916 124.609 309.078 124.577C309.273 124.512 309.436 124.642 309.468 124.804L313.3 138.646C313.495 139.328 313.203 140.043 312.618 140.433L312.521 140.465L309.695 141.115C309.695 141.115 309.695 141.115 309.663 141.115Z" fill="#350453"/>
            <path d="M311.124 146.249C310.572 146.086 309.988 146.021 309.436 146.021C307.519 146.054 305.668 147.061 304.564 148.621C304.467 148.783 304.499 148.978 304.662 149.076C304.824 149.173 305.019 149.141 305.116 148.978C306.09 147.581 307.747 146.671 309.436 146.671C311.124 146.639 312.813 147.484 313.82 148.881C313.917 149.043 314.145 149.076 314.275 148.946C314.437 148.848 314.469 148.621 314.339 148.491C313.56 147.386 312.391 146.606 311.124 146.249Z" fill="#350453"/>
            <path d="M297.257 103.587C297.127 103.587 296.965 103.555 296.835 103.522C295.633 103.197 295.178 101.735 295.438 100.468C295.666 99.3958 296.25 98.4536 296.9 97.6738C296.77 97.5763 296.64 97.5113 296.51 97.4463C295.308 96.7965 293.782 96.569 291.931 96.7315C288.781 97.0564 285.793 98.4536 283.487 100.63C283.357 100.76 283.162 100.76 283.032 100.63C282.902 100.501 282.902 100.306 283.032 100.176C285.436 97.8687 288.586 96.4391 291.866 96.0817C293.847 95.8867 295.503 96.1467 296.835 96.8615C297.03 96.9589 297.192 97.0564 297.354 97.1864C297.517 96.9914 297.679 96.829 297.842 96.6665C302.486 91.9877 308.916 89.2259 315.574 89.0635C315.769 89.0635 315.898 89.1934 315.898 89.3884C315.898 89.5833 315.769 89.7133 315.574 89.7133C309.111 89.8758 302.81 92.5726 298.296 97.1214C298.166 97.2514 298.004 97.4138 297.874 97.5763C298.913 98.5185 299.53 99.8182 299.433 101.118C299.4 101.833 299.141 102.45 298.718 102.905C298.329 103.327 297.809 103.587 297.257 103.587ZM297.419 98.0962C296.835 98.811 296.283 99.6557 296.088 100.598C295.893 101.54 296.185 102.677 296.997 102.872C297.419 102.97 297.906 102.807 298.231 102.45C298.524 102.125 298.718 101.638 298.751 101.085C298.848 100.013 298.329 98.9084 297.419 98.0962Z" fill="#FEF4DE"/>
            <path d="M262.085 177.733C259.455 176.434 256.564 175.654 253.804 175.491C245.62 174.972 237.598 178.806 231.492 184.329C225.419 189.853 221.002 196.936 216.943 204.084C211.292 214.092 206.226 224.424 201.776 235.016L262.085 251.847V177.733Z" fill="#B9B5B2"/>
            <path d="M261.533 208.925C261.37 208.925 261.241 208.828 261.208 208.665C259.195 197.521 251.14 187.643 240.618 183.452C240.456 183.387 240.358 183.192 240.423 183.029C240.488 182.867 240.683 182.769 240.845 182.834C251.563 187.091 259.812 197.196 261.825 208.535C261.858 208.73 261.728 208.893 261.565 208.925C261.565 208.925 261.565 208.925 261.533 208.925Z" fill="white"/>
            <path d="M289.235 193.492C289.138 193.492 289.073 193.459 289.008 193.394L275.076 179.325C274.946 179.195 274.946 179 275.076 178.87C275.206 178.74 275.4 178.74 275.53 178.87L289.138 192.614L294.821 181.632C294.919 181.47 295.114 181.405 295.276 181.502C295.438 181.6 295.503 181.795 295.406 181.957L289.528 193.329C289.495 193.427 289.398 193.492 289.3 193.492C289.268 193.492 289.268 193.492 289.235 193.492Z" fill="white"/>
            <path d="M304.824 191.867C304.727 191.867 304.629 191.802 304.564 191.737L297.484 181.99C297.387 181.827 297.419 181.632 297.549 181.535C297.679 181.437 297.907 181.47 298.004 181.6L304.824 190.957L314.145 178.903C314.242 178.773 314.47 178.74 314.599 178.838C314.729 178.935 314.762 179.163 314.664 179.293L305.051 191.705C305.019 191.802 304.921 191.867 304.824 191.867Z" fill="white"/>
            <path d="M255.72 237.323C255.687 237.323 255.655 237.323 255.622 237.323L207.817 221.727C207.655 221.662 207.557 221.5 207.622 221.305C207.687 221.142 207.849 221.045 208.044 221.11L255.85 236.706C256.012 236.771 256.109 236.933 256.045 237.128C255.98 237.258 255.85 237.323 255.72 237.323Z" fill="white"/>
            <path d="M297.744 284.696C297.549 284.696 297.419 284.533 297.419 284.371V193.167C297.419 192.972 297.582 192.842 297.744 192.842C297.939 192.842 298.069 193.004 298.069 193.167V284.371C298.069 284.533 297.939 284.696 297.744 284.696Z" fill="white"/>
            <path d="M291.574 251.457L291.671 258.8L294.562 259.84L299.336 254.284L291.574 251.457Z" fill="#FADDBF"/>
            <path d="M299.336 254.284L311.644 220.492L316.321 207.561L312.456 206.164L308.559 204.734L303.882 217.666L291.574 251.457L299.336 254.284Z" fill="#FFB548"/>
            <path d="M296.802 253.374L309.111 219.55L313.82 206.651L313.982 206.716L314.145 206.781L309.468 219.68L297.16 253.504L296.802 253.374Z" fill="#FBF2D5"/>
            <path d="M293.75 252.269L306.026 218.445L310.735 205.514L310.897 205.579L311.092 205.644L306.383 218.575L294.075 252.367L293.75 252.269Z" fill="#FBF2D5"/>
            <path d="M291.704 263.154L294.562 259.84L291.671 258.8L291.704 263.154Z" fill="#0F3843"/>
            <path d="M313.788 199.048L315.996 199.86C317.458 200.38 318.205 202.005 317.685 203.467L316.548 206.553L309.046 203.824L310.183 200.737C310.702 199.275 312.326 198.528 313.788 199.048Z" fill="#F76652"/>
            <path d="M308.121 204.866L316.605 207.955L317.671 205.024L309.187 201.935L308.121 204.866Z" fill="#2E3D63"/>
            <path d="M322.816 242.197C322.459 244.536 319.861 245.576 317.36 245.901C318.594 246.713 319.438 247.753 319.438 249.15C319.406 253.959 314.405 254.673 311.936 254.219C312.748 254.706 313.365 255.388 313.658 256.298C314.145 257.89 313.268 259.645 311.969 260.652C310.637 261.659 308.981 262.082 307.325 262.341C306.708 262.439 306.123 262.536 305.506 262.601C305.701 264.031 305.019 265.526 303.98 266.533C302.681 267.735 300.959 268.32 299.238 268.742C295.146 269.717 289.95 270.009 285.436 268.97C284.916 270.009 284.364 271.049 283.812 272.089C281.961 275.501 279.915 278.815 277.706 281.999C268.158 295.84 255.492 307.57 240.813 315.79C235.032 319.039 228.472 321.834 221.944 320.631C214.669 319.299 208.954 312.963 207.005 305.815C205.446 299.967 205.608 291.454 208.889 286.125C211.714 281.544 216.131 277.093 219.638 272.999C228.147 263.056 237.858 254.121 248.477 246.453C254.518 242.099 260.883 238.135 267.476 234.626C271.178 232.644 278.551 230.175 285.306 229.265C296.9 227.738 309.013 230.532 318.984 236.641C320.997 237.973 323.173 239.857 322.816 242.197Z" fill="#FFCBBB"/>
            <path d="M283.812 272.122C281.96 275.533 279.914 278.847 277.706 282.031C267.411 270.919 259.649 257.273 255.46 242.814L266.177 239.695C269.587 251.522 275.725 262.731 283.812 272.122Z" fill="#2E3D63"/>
            <path d="M209.57 285.476C209.506 285.476 209.441 285.443 209.376 285.411C209.213 285.313 209.181 285.118 209.278 284.956C211.324 281.902 213.987 278.912 216.553 276.053C217.56 274.948 218.501 273.876 219.378 272.836C227.92 262.861 237.63 253.926 248.282 246.226C253.219 242.652 258.383 239.337 263.644 236.381C263.806 236.283 264.001 236.348 264.098 236.511C264.196 236.673 264.131 236.868 263.969 236.966C258.707 239.922 253.576 243.237 248.64 246.778C238.02 254.446 228.342 263.349 219.833 273.291C218.924 274.364 217.982 275.403 216.975 276.54C214.409 279.4 211.779 282.356 209.765 285.378C209.765 285.443 209.668 285.476 209.57 285.476Z" fill="#350453"/>
            <path d="M312.034 245.836C306.48 245.836 300.959 244.796 295.796 242.782C295.633 242.717 295.536 242.522 295.601 242.359C295.666 242.197 295.86 242.099 296.023 242.164C302.421 244.666 309.403 245.641 316.223 244.959C316.386 244.959 316.548 245.089 316.58 245.251C316.613 245.446 316.451 245.576 316.288 245.609C314.892 245.771 313.463 245.836 312.034 245.836Z" fill="#350453"/>
            <path d="M299.53 263.251C295.763 263.251 291.996 262.731 288.423 261.724C288.261 261.659 288.164 261.497 288.196 261.334C288.261 261.172 288.423 261.074 288.586 261.107C293.782 262.569 299.433 262.959 304.824 262.244C304.986 262.212 305.181 262.341 305.181 262.536C305.214 262.731 305.084 262.894 304.889 262.894C303.135 263.121 301.349 263.251 299.53 263.251Z" fill="#350453"/>
            <path d="M305.311 255.226C301.154 255.226 297.03 254.478 293.1 253.049C292.938 252.984 292.84 252.789 292.905 252.626C292.97 252.464 293.165 252.367 293.327 252.431C299.141 254.576 305.441 255.128 311.514 254.024C311.676 253.991 311.871 254.121 311.904 254.283C311.936 254.446 311.806 254.641 311.644 254.673C309.533 255.031 307.422 255.226 305.311 255.226Z" fill="#350453"/>
            <path d="M263.254 258.605C269.873 258.605 275.238 253.237 275.238 246.616C275.238 239.994 269.873 234.626 263.254 234.626C256.636 234.626 251.27 239.994 251.27 246.616C251.27 253.237 256.636 258.605 263.254 258.605Z" fill="#2E3D63"/>
            <path d="M263.254 254.544C267.631 254.544 271.178 250.994 271.178 246.616C271.178 242.237 267.631 238.688 263.254 238.688C258.878 238.688 255.33 242.237 255.33 246.616C255.33 250.994 258.878 254.544 263.254 254.544Z" fill="white"/>
            <path d="M263.254 247.461C263.72 247.461 264.098 247.082 264.098 246.616C264.098 246.149 263.72 245.771 263.254 245.771C262.788 245.771 262.41 246.149 262.41 246.616C262.41 247.082 262.788 247.461 263.254 247.461Z" fill="#2E2E2E"/>
            <path d="M263.164 240.796L262.931 246.477L263.58 246.504L263.813 240.822L263.164 240.796Z" fill="#350453"/>
            <path d="M266.599 249.67L263.059 247.071L263.449 246.551L266.989 249.118L266.599 249.67Z" fill="#350453"/>
            <path d="M339.087 252.301L387.347 221.012C387.347 221.012 361.106 174.289 330.61 175.426C300.083 176.596 339.087 252.301 339.087 252.301Z" fill="#B9B5B2"/>
            <path d="M459.672 213.766C462.043 213.019 464.478 212.207 466.167 210.42C467.856 208.633 468.408 205.481 466.654 203.726C465.16 202.264 462.627 202.362 460.874 203.499C459.12 204.636 458.048 206.553 457.236 208.47C456.749 209.607 456.359 210.939 456.814 212.077C457.269 213.246 458.957 213.929 459.802 213.019L459.672 213.766Z" fill="#FFCBBB"/>
            <path d="M459.022 222.604C461.393 221.857 463.829 221.045 465.517 219.257C467.206 217.47 467.758 214.319 466.004 212.564C464.511 211.102 461.977 211.2 460.224 212.337C458.47 213.474 457.398 215.391 456.586 217.308C456.099 218.445 455.709 219.777 456.164 220.915C456.619 222.084 458.308 222.767 459.152 221.857L459.022 222.604Z" fill="#FFCBBB"/>
            <path d="M457.074 231.15C459.445 230.402 461.88 229.59 463.569 227.803C465.258 225.983 465.81 222.864 464.056 221.11C462.562 219.647 460.029 219.745 458.275 220.882C456.522 222.019 455.45 223.936 454.638 225.853C454.151 226.991 453.761 228.323 454.216 229.46C454.671 230.63 456.359 231.312 457.204 230.402L457.074 231.15Z" fill="#FFCBBB"/>
            <path d="M371.271 238.428L424.402 221.369C424.402 221.369 446.454 211.362 452.689 214.319C461.458 218.51 453.826 237.55 439.634 251.132C422.973 267.085 391.276 275.371 391.276 275.371C379.325 281.024 365.1 274.753 361.301 262.114C358.735 253.471 359.709 244.211 371.271 238.428Z" fill="#FFCBBB"/>
            <path d="M430.021 205.903C431.028 205.059 432.067 204.246 433.334 203.922C434.6 203.597 436.094 203.857 436.873 204.896C437.718 206.033 437.458 207.626 437.101 208.99C434.827 217.535 430.151 225.431 423.753 231.507C422.292 232.872 420.733 234.204 418.882 234.919C416.413 235.893 413.231 235.698 411.509 233.424C410.015 231.507 411.055 229.557 412.094 227.673C414.984 222.409 418.524 217.503 422.551 213.084C424.857 210.517 427.358 208.113 430.021 205.903Z" fill="#FFCBBB"/>
            <path d="M431.32 233.327C430.605 238.363 427.78 243.106 423.558 245.933C419.336 248.76 413.718 249.54 408.976 247.72C407.872 247.298 416.543 231.507 417.452 230.142C419.271 227.413 421.252 224.846 423.428 222.409C425.767 219.777 427.715 217.698 429.631 221.857C431.255 225.399 431.872 229.492 431.32 233.327Z" fill="#FFCBBB"/>
            <path d="M350.486 276.183H350.453C350.259 276.151 350.161 275.988 350.161 275.826C353.116 254.706 350.616 232.774 344.51 212.337C344.445 212.175 344.543 211.98 344.738 211.915C344.9 211.85 345.095 211.947 345.16 212.142C351.298 232.644 353.798 254.706 350.811 275.891C350.778 276.053 350.648 276.183 350.486 276.183Z" fill="white"/>
            <path d="M347.206 221.694C347.141 221.694 347.043 221.662 346.978 221.629C346.849 221.499 346.816 221.304 346.946 221.174C349.187 218.543 350.356 215.033 350.226 211.589C350.226 211.394 350.356 211.264 350.551 211.232C350.713 211.232 350.876 211.362 350.908 211.557C351.07 215.163 349.804 218.835 347.466 221.597C347.401 221.629 347.303 221.694 347.206 221.694Z" fill="white"/>
            <path d="M430.508 209.478C429.599 209.478 428.689 209.153 428.007 208.568C427.877 208.438 427.845 208.243 427.975 208.113C428.105 207.983 428.3 207.95 428.429 208.08C429.339 208.86 430.735 209.055 431.839 208.535C432.944 208.015 433.658 206.813 433.626 205.611C433.626 205.416 433.756 205.286 433.95 205.286C434.145 205.286 434.275 205.416 434.275 205.611C434.308 207.073 433.431 208.535 432.099 209.153C431.612 209.348 431.06 209.478 430.508 209.478Z" fill="#350453"/>
            <path d="M428.137 242.359C428.072 242.359 428.007 242.326 427.942 242.294C427.78 242.196 427.748 241.969 427.878 241.839C431.742 236.51 432.457 229.46 429.729 223.904C429.664 223.774 429.696 223.644 429.761 223.546C430.963 222.149 432.067 220.589 432.976 218.965C433.074 218.802 433.269 218.737 433.431 218.835C433.593 218.932 433.658 219.127 433.561 219.29C432.651 220.882 431.612 222.409 430.411 223.806C433.139 229.557 432.359 236.738 428.397 242.196C428.332 242.294 428.235 242.359 428.137 242.359Z" fill="#350453"/>
            <path d="M372.472 240.377C372.342 240.377 372.245 240.312 372.18 240.182C372.083 240.02 372.148 239.825 372.31 239.727C385.495 233.034 399.233 228.063 413.165 224.944C413.36 224.911 413.523 225.009 413.555 225.204C413.588 225.366 413.49 225.561 413.295 225.593C399.428 228.68 385.723 233.651 372.57 240.312C372.57 240.377 372.537 240.377 372.472 240.377Z" fill="#350453"/>
            <path d="M192.26 208.73H109.965V280.049H192.26V208.73Z" fill="white"/>
            <path d="M132.893 256.85L117.175 246.778H148.677L132.893 256.85Z" fill="#E1E7F7"/>
            <path d="M136.888 250.254L148.677 246.778L117.077 246.063L136.888 250.254Z" fill="white"/>
            <path d="M191.189 247.2H111.069C110.744 247.2 110.517 246.94 110.517 246.648C110.517 246.356 110.777 246.096 111.069 246.096H191.189C191.513 246.096 191.741 246.356 191.741 246.648C191.741 246.94 191.513 247.2 191.189 247.2Z" fill="#E1E7F7"/>
            <path d="M191.189 271.829H111.069C110.744 271.829 110.517 271.569 110.517 271.277C110.517 270.984 110.777 270.724 111.069 270.724H191.189C191.513 270.724 191.741 270.984 191.741 271.277C191.741 271.569 191.513 271.829 191.189 271.829Z" fill="#E1E7F7"/>
            <path d="M191.189 253.049H111.069C110.744 253.049 110.517 252.789 110.517 252.497C110.517 252.204 110.777 251.944 111.069 251.944H191.189C191.513 251.944 191.741 252.204 191.741 252.497C191.741 252.789 191.513 253.049 191.189 253.049Z" fill="#E1E7F7"/>
            <path d="M191.189 215.456H111.069C110.744 215.456 110.517 215.196 110.517 214.903C110.517 214.611 110.777 214.351 111.069 214.351H191.189C191.513 214.351 191.741 214.611 191.741 214.903C191.741 215.196 191.513 215.456 191.189 215.456Z" fill="#E1E7F7"/>
            <path d="M191.189 221.76H111.069C110.744 221.76 110.517 221.5 110.517 221.207C110.517 220.882 110.777 220.655 111.069 220.655H191.189C191.513 220.655 191.741 220.915 191.741 221.207C191.773 221.532 191.513 221.76 191.189 221.76Z" fill="#E1E7F7"/>
            <path d="M191.189 228.485H111.069C110.744 228.485 110.517 228.225 110.517 227.933C110.517 227.64 110.777 227.38 111.069 227.38H191.189C191.513 227.38 191.741 227.64 191.741 227.933C191.741 228.225 191.513 228.485 191.189 228.485Z" fill="#E1E7F7"/>
            <path d="M168.91 209.51H111.069C110.744 209.51 110.517 209.25 110.517 208.958C110.517 208.633 110.777 208.405 111.069 208.405H168.91C176.931 208.405 184.304 205.514 188.59 200.64C188.785 200.412 189.143 200.38 189.402 200.575C189.63 200.77 189.662 201.127 189.467 201.387C184.921 206.456 177.256 209.51 168.91 209.51Z" fill="white"/>
            <path d="M191.189 234.431H111.069C110.744 234.431 110.517 234.171 110.517 233.878C110.517 233.586 110.777 233.326 111.069 233.326H191.189C191.513 233.326 191.741 233.586 191.741 233.878C191.741 234.171 191.513 234.431 191.189 234.431Z" fill="#E1E7F7"/>
            <path d="M191.189 241.287H111.069C110.744 241.287 110.517 241.027 110.517 240.734C110.517 240.442 110.777 240.182 111.069 240.182H191.189C191.513 240.182 191.741 240.442 191.741 240.734C191.741 241.027 191.513 241.287 191.189 241.287Z" fill="#E1E7F7"/>
            <path d="M191.189 259.612H111.069C110.744 259.612 110.517 259.352 110.517 259.06C110.517 258.735 110.777 258.507 111.069 258.507H191.189C191.513 258.507 191.741 258.767 191.741 259.06C191.773 259.352 191.513 259.612 191.189 259.612Z" fill="#E1E7F7"/>
            <path d="M191.189 265.591H111.069C110.744 265.591 110.517 265.331 110.517 265.038C110.517 264.746 110.777 264.486 111.069 264.486H191.189C191.513 264.486 191.741 264.746 191.741 265.038C191.741 265.331 191.513 265.591 191.189 265.591Z" fill="#E1E7F7"/>
            <path d="M171.735 244.698L143.513 233.066H181.381L171.735 244.698Z" fill="#E1E7F7"/>
            <path d="M173.749 239.37L142.604 232.742H180.472L173.749 239.37Z" fill="white"/>
            <path d="M114.382 213.669L126.041 227.803L156.244 213.701L114.382 213.669Z" fill="#E1E7F7"/>
            <path d="M113.895 213.669L119.838 222.832L155.237 213.669H113.895Z" fill="white"/>
            <path d="M169.884 275.468V279.237H133.316V275.468C133.316 272.706 131.075 270.464 128.314 270.464H104.152V289.667H199.048V270.464H174.886C172.125 270.432 169.884 272.706 169.884 275.468Z" fill="#F76652"/>
            <path fill-rule="evenodd" clip-rule="evenodd" d="M357.728 287.653C357.728 283.169 352.662 279.53 346.426 279.53H327.915C321.679 279.53 316.613 283.169 316.613 287.653C316.613 288.173 317.197 288.595 317.912 288.595H356.429C357.143 288.595 357.728 288.173 357.728 287.653Z" fill="white"/>
            <path d="M184.596 520C184.109 520 183.654 519.676 183.525 519.156L128.217 293.664L72.9098 519.156C72.7799 519.74 72.1629 520.098 71.5783 519.968C70.9937 519.838 70.6365 519.221 70.7664 518.636L127.145 288.822C127.275 288.335 127.698 287.978 128.217 287.978C128.737 287.978 129.159 288.335 129.289 288.822L185.668 518.636C185.798 519.221 185.441 519.805 184.856 519.968C184.759 520 184.694 520 184.596 520Z" fill="#E1E7F7"/>
            <path d="M649.042 520C648.555 520 648.1 519.676 647.97 519.156L592.663 293.664L537.356 519.156C537.226 519.74 536.609 520.098 536.024 519.968C535.44 519.838 535.082 519.221 535.212 518.636L591.591 288.822C591.721 288.335 592.143 287.978 592.663 287.978C593.183 287.978 593.605 288.335 593.735 288.822L650.114 518.636C650.244 519.221 649.887 519.805 649.302 519.968C649.237 520 649.14 520 649.042 520Z" fill="#E1E7F7"/>
            <path d="M686 288.172H53.2939V296.945H686V288.172Z" fill="#E1E7F7"/>
            <path d="M437.198 255.616H611.045C612.019 255.616 612.831 254.804 612.993 253.731L627.088 143.422C627.25 142.09 626.341 140.92 625.139 140.92H451.26C450.286 140.92 449.474 141.733 449.312 142.805L435.217 253.114C435.087 254.414 436.029 255.616 437.198 255.616Z" fill="#727B91"/>
            <path d="M516.213 199.243L519.85 255.616H543.461L516.213 199.243Z" fill="#475577"/>
            <path d="M516.181 199.243H549.631L576.814 290.284H543.396L516.181 199.243Z" fill="#727B91"/>
            <path d="M505.431 290.577H603.672C603.672 286.938 600.717 283.981 597.08 283.981H512.024C508.386 283.949 505.431 286.905 505.431 290.577Z" fill="#727B91"/>
            <path d="M586.103 172.242C587.197 172.242 588.084 171.355 588.084 170.26C588.084 169.166 587.197 168.278 586.103 168.278C585.009 168.278 584.122 169.166 584.122 170.26C584.122 171.355 585.009 172.242 586.103 172.242Z" fill="#475577"/>
            <path d="M580.127 172.242C581.221 172.242 582.108 171.355 582.108 170.26C582.108 169.166 581.221 168.278 580.127 168.278C579.033 168.278 578.146 169.166 578.146 170.26C578.146 171.355 579.033 172.242 580.127 172.242Z" fill="#475577"/>
            <path d="M574.151 172.242C575.246 172.242 576.133 171.355 576.133 170.26C576.133 169.166 575.246 168.278 574.151 168.278C573.057 168.278 572.17 169.166 572.17 170.26C572.17 171.355 573.057 172.242 574.151 172.242Z" fill="#475577"/>
            <path d="M568.176 172.242C569.27 172.242 570.157 171.355 570.157 170.26C570.157 169.166 569.27 168.278 568.176 168.278C567.082 168.278 566.195 169.166 566.195 170.26C566.195 171.355 567.082 172.242 568.176 172.242Z" fill="#475577"/>
            <path d="M562.2 172.242C563.294 172.242 564.181 171.355 564.181 170.26C564.181 169.166 563.294 168.278 562.2 168.278C561.106 168.278 560.219 169.166 560.219 170.26C560.219 171.355 561.106 172.242 562.2 172.242Z" fill="#475577"/>
            <path d="M556.192 172.242C557.286 172.242 558.173 171.355 558.173 170.26C558.173 169.166 557.286 168.278 556.192 168.278C555.098 168.278 554.211 169.166 554.211 170.26C554.211 171.355 555.098 172.242 556.192 172.242Z" fill="#475577"/>
            <path d="M550.216 172.242C551.311 172.242 552.198 171.355 552.198 170.26C552.198 169.166 551.311 168.278 550.216 168.278C549.122 168.278 548.235 169.166 548.235 170.26C548.235 171.355 549.122 172.242 550.216 172.242Z" fill="#475577"/>
            <path d="M544.241 172.242C545.335 172.242 546.222 171.355 546.222 170.26C546.222 169.166 545.335 168.278 544.241 168.278C543.147 168.278 542.26 169.166 542.26 170.26C542.26 171.355 543.147 172.242 544.241 172.242Z" fill="#475577"/>
            <path d="M538.265 172.242C539.359 172.242 540.246 171.355 540.246 170.26C540.246 169.166 539.359 168.278 538.265 168.278C537.171 168.278 536.284 169.166 536.284 170.26C536.284 171.355 537.171 172.242 538.265 172.242Z" fill="#475577"/>
            <path d="M532.289 172.242C533.383 172.242 534.27 171.355 534.27 170.26C534.27 169.166 533.383 168.278 532.289 168.278C531.195 168.278 530.308 169.166 530.308 170.26C530.308 171.355 531.195 172.242 532.289 172.242Z" fill="#475577"/>
            <path d="M526.314 172.242C527.408 172.242 528.295 171.355 528.295 170.26C528.295 169.166 527.408 168.278 526.314 168.278C525.219 168.278 524.333 169.166 524.333 170.26C524.333 171.355 525.219 172.242 526.314 172.242Z" fill="#475577"/>
            <path d="M520.338 172.242C521.432 172.242 522.319 171.355 522.319 170.26C522.319 169.166 521.432 168.278 520.338 168.278C519.244 168.278 518.357 169.166 518.357 170.26C518.357 171.355 519.244 172.242 520.338 172.242Z" fill="#475577"/>
            <path d="M514.33 172.242C515.424 172.242 516.311 171.355 516.311 170.26C516.311 169.166 515.424 168.278 514.33 168.278C513.236 168.278 512.349 169.166 512.349 170.26C512.349 171.355 513.236 172.242 514.33 172.242Z" fill="#475577"/>
            <path d="M508.354 172.242C509.448 172.242 510.335 171.355 510.335 170.26C510.335 169.166 509.448 168.278 508.354 168.278C507.26 168.278 506.373 169.166 506.373 170.26C506.373 171.355 507.26 172.242 508.354 172.242Z" fill="#475577"/>
            <path d="M502.379 172.242C503.473 172.242 504.36 171.355 504.36 170.26C504.36 169.166 503.473 168.278 502.379 168.278C501.284 168.278 500.397 169.166 500.397 170.26C500.397 171.355 501.284 172.242 502.379 172.242Z" fill="#475577"/>
            <path d="M496.403 172.242C497.497 172.242 498.384 171.355 498.384 170.26C498.384 169.166 497.497 168.278 496.403 168.278C495.309 168.278 494.422 169.166 494.422 170.26C494.422 171.355 495.309 172.242 496.403 172.242Z" fill="#475577"/>
            <path d="M586.103 183.192C587.197 183.192 588.084 182.305 588.084 181.21C588.084 180.115 587.197 179.228 586.103 179.228C585.009 179.228 584.122 180.115 584.122 181.21C584.122 182.305 585.009 183.192 586.103 183.192Z" fill="#475577"/>
            <path d="M580.127 183.192C581.221 183.192 582.108 182.305 582.108 181.21C582.108 180.115 581.221 179.228 580.127 179.228C579.033 179.228 578.146 180.115 578.146 181.21C578.146 182.305 579.033 183.192 580.127 183.192Z" fill="#475577"/>
            <path d="M574.151 183.192C575.246 183.192 576.133 182.305 576.133 181.21C576.133 180.115 575.246 179.228 574.151 179.228C573.057 179.228 572.17 180.115 572.17 181.21C572.17 182.305 573.057 183.192 574.151 183.192Z" fill="#475577"/>
            <path d="M568.176 183.192C569.27 183.192 570.157 182.305 570.157 181.21C570.157 180.115 569.27 179.228 568.176 179.228C567.082 179.228 566.195 180.115 566.195 181.21C566.195 182.305 567.082 183.192 568.176 183.192Z" fill="#475577"/>
            <path d="M562.2 183.192C563.294 183.192 564.181 182.305 564.181 181.21C564.181 180.115 563.294 179.228 562.2 179.228C561.106 179.228 560.219 180.115 560.219 181.21C560.219 182.305 561.106 183.192 562.2 183.192Z" fill="#475577"/>
            <path d="M556.192 183.192C557.286 183.192 558.173 182.305 558.173 181.21C558.173 180.115 557.286 179.228 556.192 179.228C555.098 179.228 554.211 180.115 554.211 181.21C554.211 182.305 555.098 183.192 556.192 183.192Z" fill="#475577"/>
            <path d="M550.216 183.192C551.311 183.192 552.198 182.305 552.198 181.21C552.198 180.115 551.311 179.228 550.216 179.228C549.122 179.228 548.235 180.115 548.235 181.21C548.235 182.305 549.122 183.192 550.216 183.192Z" fill="#475577"/>
            <path d="M544.241 183.192C545.335 183.192 546.222 182.305 546.222 181.21C546.222 180.115 545.335 179.228 544.241 179.228C543.147 179.228 542.26 180.115 542.26 181.21C542.26 182.305 543.147 183.192 544.241 183.192Z" fill="#475577"/>
            <path d="M538.265 183.192C539.359 183.192 540.246 182.305 540.246 181.21C540.246 180.115 539.359 179.228 538.265 179.228C537.171 179.228 536.284 180.115 536.284 181.21C536.284 182.305 537.171 183.192 538.265 183.192Z" fill="#475577"/>
            <path d="M532.289 183.192C533.383 183.192 534.27 182.305 534.27 181.21C534.27 180.115 533.383 179.228 532.289 179.228C531.195 179.228 530.308 180.115 530.308 181.21C530.308 182.305 531.195 183.192 532.289 183.192Z" fill="#475577"/>
            <path d="M526.314 183.192C527.408 183.192 528.295 182.305 528.295 181.21C528.295 180.115 527.408 179.228 526.314 179.228C525.219 179.228 524.333 180.115 524.333 181.21C524.333 182.305 525.219 183.192 526.314 183.192Z" fill="#475577"/>
            <path d="M520.338 183.192C521.432 183.192 522.319 182.305 522.319 181.21C522.319 180.115 521.432 179.228 520.338 179.228C519.244 179.228 518.357 180.115 518.357 181.21C518.357 182.305 519.244 183.192 520.338 183.192Z" fill="#475577"/>
            <path d="M514.33 183.192C515.424 183.192 516.311 182.305 516.311 181.21C516.311 180.115 515.424 179.228 514.33 179.228C513.236 179.228 512.349 180.115 512.349 181.21C512.349 182.305 513.236 183.192 514.33 183.192Z" fill="#475577"/>
            <path d="M508.354 183.192C509.448 183.192 510.335 182.305 510.335 181.21C510.335 180.115 509.448 179.228 508.354 179.228C507.26 179.228 506.373 180.115 506.373 181.21C506.373 182.305 507.26 183.192 508.354 183.192Z" fill="#475577"/>
            <path d="M502.379 183.192C503.473 183.192 504.36 182.305 504.36 181.21C504.36 180.115 503.473 179.228 502.379 179.228C501.284 179.228 500.397 180.115 500.397 181.21C500.397 182.305 501.284 183.192 502.379 183.192Z" fill="#475577"/>
            <path d="M496.403 183.192C497.497 183.192 498.384 182.305 498.384 181.21C498.384 180.115 497.497 179.228 496.403 179.228C495.309 179.228 494.422 180.115 494.422 181.21C494.422 182.305 495.309 183.192 496.403 183.192Z" fill="#475577"/>
            <path d="M589.188 177.734C590.282 177.734 591.169 176.846 591.169 175.752C591.169 174.657 590.282 173.77 589.188 173.77C588.094 173.77 587.207 174.657 587.207 175.752C587.207 176.846 588.094 177.734 589.188 177.734Z" fill="#475577"/>
            <path d="M583.213 177.734C584.307 177.734 585.194 176.846 585.194 175.752C585.194 174.657 584.307 173.77 583.213 173.77C582.118 173.77 581.231 174.657 581.231 175.752C581.231 176.846 582.118 177.734 583.213 177.734Z" fill="#475577"/>
            <path d="M577.237 177.734C578.331 177.734 579.218 176.846 579.218 175.752C579.218 174.657 578.331 173.77 577.237 173.77C576.143 173.77 575.256 174.657 575.256 175.752C575.256 176.846 576.143 177.734 577.237 177.734Z" fill="#475577"/>
            <path d="M571.229 177.734C572.323 177.734 573.21 176.846 573.21 175.752C573.21 174.657 572.323 173.77 571.229 173.77C570.135 173.77 569.248 174.657 569.248 175.752C569.248 176.846 570.135 177.734 571.229 177.734Z" fill="#475577"/>
            <path d="M565.253 177.734C566.347 177.734 567.234 176.846 567.234 175.752C567.234 174.657 566.347 173.77 565.253 173.77C564.159 173.77 563.272 174.657 563.272 175.752C563.272 176.846 564.159 177.734 565.253 177.734Z" fill="#475577"/>
            <path d="M559.277 177.734C560.372 177.734 561.258 176.846 561.258 175.752C561.258 174.657 560.372 173.77 559.277 173.77C558.183 173.77 557.296 174.657 557.296 175.752C557.296 176.846 558.183 177.734 559.277 177.734Z" fill="#475577"/>
            <path d="M553.302 177.734C554.396 177.734 555.283 176.846 555.283 175.752C555.283 174.657 554.396 173.77 553.302 173.77C552.208 173.77 551.321 174.657 551.321 175.752C551.321 176.846 552.208 177.734 553.302 177.734Z" fill="#475577"/>
            <path d="M547.326 177.734C548.42 177.734 549.307 176.846 549.307 175.752C549.307 174.657 548.42 173.77 547.326 173.77C546.232 173.77 545.345 174.657 545.345 175.752C545.345 176.846 546.232 177.734 547.326 177.734Z" fill="#475577"/>
            <path d="M541.351 177.734C542.445 177.734 543.332 176.846 543.332 175.752C543.332 174.657 542.445 173.77 541.351 173.77C540.257 173.77 539.37 174.657 539.37 175.752C539.37 176.846 540.257 177.734 541.351 177.734Z" fill="#475577"/>
            <path d="M535.375 177.734C536.469 177.734 537.356 176.846 537.356 175.752C537.356 174.657 536.469 173.77 535.375 173.77C534.281 173.77 533.394 174.657 533.394 175.752C533.394 176.846 534.281 177.734 535.375 177.734Z" fill="#475577"/>
            <path d="M529.367 177.734C530.461 177.734 531.348 176.846 531.348 175.752C531.348 174.657 530.461 173.77 529.367 173.77C528.273 173.77 527.386 174.657 527.386 175.752C527.386 176.846 528.273 177.734 529.367 177.734Z" fill="#475577"/>
            <path d="M523.391 177.734C524.485 177.734 525.372 176.846 525.372 175.752C525.372 174.657 524.485 173.77 523.391 173.77C522.297 173.77 521.41 174.657 521.41 175.752C521.41 176.846 522.297 177.734 523.391 177.734Z" fill="#475577"/>
            <path d="M517.415 177.734C518.509 177.734 519.396 176.846 519.396 175.752C519.396 174.657 518.509 173.77 517.415 173.77C516.321 173.77 515.434 174.657 515.434 175.752C515.434 176.846 516.321 177.734 517.415 177.734Z" fill="#475577"/>
            <path d="M511.44 177.734C512.534 177.734 513.421 176.846 513.421 175.752C513.421 174.657 512.534 173.77 511.44 173.77C510.345 173.77 509.458 174.657 509.458 175.752C509.458 176.846 510.345 177.734 511.44 177.734Z" fill="#475577"/>
            <path d="M505.464 177.734C506.558 177.734 507.445 176.846 507.445 175.752C507.445 174.657 506.558 173.77 505.464 173.77C504.37 173.77 503.483 174.657 503.483 175.752C503.483 176.846 504.37 177.734 505.464 177.734Z" fill="#475577"/>
            <path d="M499.488 177.734C500.583 177.734 501.469 176.846 501.469 175.752C501.469 174.657 500.583 173.77 499.488 173.77C498.394 173.77 497.507 174.657 497.507 175.752C497.507 176.846 498.394 177.734 499.488 177.734Z" fill="#475577"/>
            <path d="M514.362 420.739C511.926 421.973 509.458 423.175 507.314 424.833C505.626 426.165 504.164 427.822 502.508 429.154C502.183 425.547 502.313 421.941 502.898 418.367C500.884 422.396 499.585 426.75 499.065 431.233C496.954 432.143 494.649 432.728 492.538 433.703C491.661 434.125 490.849 434.58 490.037 435.132C489.68 431.851 488.9 428.634 487.764 425.58C487.634 429.999 486.984 434.418 485.815 438.674C480.911 443.548 476.851 444.587 470.584 452.418C470.519 447.122 470.778 441.793 471.298 436.53C471.688 432.208 472.272 427.854 473.604 423.728C475.975 421.323 478.898 419.471 482.08 418.399C480.099 418.009 478.021 417.944 476.007 418.172C476.007 418.139 476.04 418.107 476.04 418.074C478.573 413.525 482.925 410.211 487.926 408.782C490.946 407.937 494.454 407.06 496.922 406.865C494.811 405.63 492.473 404.785 490.069 404.395C490.297 404.265 490.492 404.168 490.719 404.038C497.896 400.236 506.08 398.644 514.199 398.677C516.44 398.677 518.681 398.807 520.857 399.294C523.098 399.814 525.209 400.659 527.255 401.666C528.489 402.283 531.672 404.72 531.672 404.72C531.672 404.72 525.631 414.988 514.362 420.739Z" fill="#A2CDB7"/>
            <path d="M541.447 452.711C541.155 452.711 540.928 452.483 540.895 452.191C540.473 440.136 538.882 428.049 536.186 416.255C535.309 412.486 534.14 408.229 531.12 405.63C528.651 403.518 525.047 402.543 520.37 402.706C512.218 402.998 503.645 406.345 496.24 412.128C490.037 416.97 484.419 423.533 479.125 432.176C478.963 432.436 478.638 432.501 478.378 432.371C478.118 432.208 478.053 431.883 478.183 431.623C483.542 422.883 489.225 416.222 495.558 411.284C503.157 405.37 511.926 401.926 520.337 401.634C525.306 401.471 529.171 402.543 531.834 404.818C535.114 407.612 536.348 412.064 537.258 416.027C539.986 427.854 541.577 440.006 541.999 452.158C541.999 452.418 541.772 452.678 541.447 452.711Z" fill="#91B8A4"/>
            <path d="M532.484 376.387C532.484 376.387 510.367 370.636 505.074 366.055C507.964 364.3 511.114 363.033 514.394 362.253C508.549 358.029 501.371 355.69 494.161 355.592C493.285 354.683 492.375 353.773 491.498 352.863C489.387 350.686 487.211 348.509 484.743 346.82C488.608 345.682 492.57 344.903 496.597 344.513C492.603 342.888 488.121 343.181 483.801 343.181C480.229 343.181 476.462 342.921 473.344 341.296C473.344 341.296 473.344 341.296 473.312 341.296C471.038 339.607 469.349 337.267 467.433 335.155C465.29 332.816 462.529 330.639 459.347 330.541C469.349 327.65 480.067 327.422 490.232 329.664C494.519 331.809 498.351 334.928 501.306 338.729C500.202 336.617 499.325 334.408 498.643 332.133C502.053 333.401 505.366 334.96 508.516 336.812C510.172 339.054 511.374 341.654 512.543 344.22C513.582 346.495 514.622 348.737 515.661 351.011C515.498 347.145 514.622 343.343 513.095 339.801C513.323 339.964 513.55 340.126 513.777 340.289C516.083 341.978 522.513 347.664 529.593 362.708C532.484 368.914 532.484 376.387 532.484 376.387Z" fill="#A2CDB7"/>
            <path d="M548.527 447.512C548.43 447.512 548.3 447.479 548.202 447.414C547.813 447.122 547.78 446.569 547.683 443.905C547.455 436.627 546.806 417.294 536.284 386.525C527.937 362.091 509.815 349.322 490.427 337.397C490.167 337.235 490.102 336.91 490.232 336.65C490.394 336.39 490.719 336.325 490.979 336.455C510.562 348.51 528.814 361.376 537.29 386.167C547.845 417.067 548.495 436.529 548.755 443.872C548.787 445.172 548.819 446.309 548.917 446.634C549.079 446.829 549.079 447.089 548.917 447.284C548.852 447.414 548.69 447.512 548.527 447.512Z" fill="#91B8A4"/>
            <path d="M640.63 378.272C636.051 374.34 630.14 371.969 624.1 371.709C628.159 372.846 631.894 375.088 634.882 378.077C635.239 378.434 635.661 379.084 636.181 379.799C629.815 381.976 623.255 384.283 617.409 386.46C607.017 379.344 601.171 380.189 599.547 379.669C604.451 381.911 608.641 384.933 612.278 388.669C610.979 389.189 609.713 389.709 608.511 390.196C603.152 392.406 597.079 391.529 592.435 388.084C591.006 387.012 589.61 386.46 588.213 387.207C576.164 393.771 579.282 387.207 571.39 389.774C570.416 381.944 581.685 372.813 587.174 369.142C610.102 353.968 642.351 354.488 664.76 370.376C664.598 370.409 653.621 373.886 640.63 378.272Z" fill="#A2CDB7"/>
            <path d="M564.148 452.97C563.888 452.97 563.661 452.775 563.596 452.515C561.42 436.984 561.29 423.338 563.206 411.998C565.025 401.373 568.662 392.438 574.086 385.388C583.082 373.691 596.819 366.867 616.11 364.528C616.403 364.495 616.695 364.69 616.727 365.015C616.76 365.308 616.565 365.6 616.24 365.633C597.274 367.94 583.764 374.6 574.963 386.07C569.669 392.991 566.064 401.763 564.278 412.193C562.362 423.435 562.492 436.952 564.668 452.385C564.7 452.678 564.505 452.97 564.213 453.003C564.181 452.97 564.18 452.97 564.148 452.97Z" fill="#91B8A4"/>
            <path d="M565.188 351.694C567.753 343.993 572.202 337.073 577.139 330.639C595.78 306.271 622.314 288.043 651.737 279.335C644.333 286.743 630.563 305.003 629.881 305.426C629.036 305.913 614.325 307.57 608.251 309.552C613.805 309.617 619.781 309.097 625.789 309.877C622.119 318.325 609.908 328.852 609.908 328.852C609.908 328.852 600.262 330.412 595.553 331.841C598.801 332.166 601.918 332.719 606.043 333.239C604.549 335.513 598.866 342.921 597.826 343.279C589.642 346.073 580.874 349.484 574.995 355.203C581.361 352.539 587.564 352.441 592.76 351.596C592.111 351.694 582.238 365.568 575.905 370.474C573.242 372.521 566.259 375.803 566.259 375.803C566.259 375.803 560.966 364.366 565.188 351.694Z" fill="#A2CDB7"/>
            <path d="M551.742 451.508C551.71 451.508 551.677 451.508 551.645 451.508C551.352 451.443 551.158 451.151 551.222 450.858C553.593 439.584 555.867 428.536 557.783 417.424C558.432 413.655 559.082 409.789 559.699 406.085C563.499 382.951 567.461 359.037 579.412 338.697C583.894 331.062 589.642 323.621 597.502 315.271C597.696 315.043 598.054 315.043 598.281 315.238C598.508 315.433 598.508 315.79 598.313 316.018C590.519 324.303 584.803 331.711 580.386 339.249C568.532 359.427 564.635 383.243 560.836 406.28C560.218 410.016 559.569 413.883 558.919 417.652C556.971 428.764 554.697 439.843 552.359 451.118C552.229 451.346 552.002 451.508 551.742 451.508Z" fill="#91B8A4"/>
            <path d="M557.848 330.834C562.687 326.903 570.773 323.978 570.968 324.011C570.481 332.914 569.409 341.784 567.753 350.557C566.584 356.892 564.863 363.196 561.03 368.622C557.036 374.34 553.398 369.629 550.216 365.73C541.577 355.17 537.875 342.174 538.784 328.95C538.784 328.82 538.817 328.657 538.817 328.527C542.909 332.036 546.708 335.935 550.053 340.159C549.404 337.43 549.534 331.971 540.278 316.765C541.35 310.494 542.844 304.191 544.467 298.018C548.267 299.35 552.359 304.353 552.619 305.783C551.547 301.234 550.476 296.685 549.469 292.137C548.949 289.83 548.592 287.36 548.105 284.923C550.118 279.14 562.752 256.721 570.059 251.879C566.357 264.649 568.565 278.003 570.026 291.097C568.825 292.364 562.07 293.469 560.381 302.144C560.901 299.48 569.507 295.743 570.546 296.263C570.676 297.563 570.773 298.862 570.838 300.194C571.228 306.758 571.293 313.354 571.066 319.917C570.351 320.079 569.669 320.339 569.02 320.632C564.343 322.614 560.283 326.285 557.848 330.834Z" fill="#A2CDB7"/>
            <path d="M559.959 456.154C559.666 456.154 559.439 455.96 559.407 455.667C555.315 414.11 553.756 371.839 554.697 330.087C555.12 311.079 556.094 290.934 562.654 272.154C562.752 271.862 563.076 271.732 563.336 271.829C563.628 271.927 563.758 272.252 563.661 272.512C557.166 291.162 556.224 311.177 555.769 330.119C554.827 371.839 556.386 414.045 560.478 455.537C560.511 455.83 560.283 456.089 559.991 456.122C559.991 456.154 559.959 456.154 559.959 456.154Z" fill="#91B8A4"/>
            <path d="M583.699 446.927L582.53 458.429L582.4 459.761L576.457 517.791H527.385L521.474 459.761L521.344 458.429L520.143 446.927H583.699Z" fill="white"/>
            <path d="M582.53 458.429L582.4 459.761H521.474L521.344 458.429H582.53Z" fill="#E1E7F7"/>
            <path d="M36.3412 256.818C36.0489 256.818 35.7891 256.721 35.5618 256.493C35.1396 256.071 35.1396 255.389 35.5618 254.934L58.8474 231.637C59.2696 231.215 59.9516 231.215 60.4062 231.637C60.8284 232.059 60.8284 232.742 60.4062 233.197L37.1206 256.493C36.8933 256.688 36.6335 256.818 36.3412 256.818Z" fill="#E1E7F7"/>
            <path d="M59.6268 256.818C59.3345 256.818 59.0747 256.721 58.8474 256.493L35.5618 233.197C35.1396 232.774 35.1396 232.092 35.5618 231.637C35.984 231.215 36.666 231.215 37.1206 231.637L60.4062 254.934C60.8284 255.356 60.8284 256.038 60.4062 256.493C60.1789 256.688 59.9191 256.818 59.6268 256.818Z" fill="#E1E7F7"/>
            <path d="M593.215 103.88C592.922 103.88 592.663 103.783 592.435 103.555C592.013 103.133 592.013 102.45 592.435 101.996L612.116 82.3056C612.538 81.8832 613.22 81.8832 613.675 82.3056C614.097 82.728 614.097 83.4103 613.675 83.8652L593.994 103.555C593.799 103.783 593.507 103.88 593.215 103.88Z" fill="#E1E7F7"/>
            <path d="M612.895 103.88C612.603 103.88 612.343 103.783 612.116 103.555L592.435 83.8652C592.013 83.4428 592.013 82.7604 592.435 82.3056C592.857 81.8832 593.54 81.8832 593.994 82.3056L613.675 101.996C614.097 102.418 614.097 103.1 613.675 103.555C613.448 103.783 613.188 103.88 612.895 103.88Z" fill="#E1E7F7"/>
            <path d="M118.994 33.0809C118.701 33.0809 118.442 32.9834 118.214 32.756C117.792 32.3336 117.792 31.6512 118.214 31.1964L131.01 18.4271C131.432 18.0048 132.114 18.0048 132.569 18.4271C132.991 18.8495 132.991 19.5319 132.569 19.9867L119.773 32.7885C119.578 32.9834 119.286 33.0809 118.994 33.0809Z" fill="#E1E7F7"/>
            <path d="M131.79 33.0807C131.497 33.0807 131.237 32.9832 131.01 32.7557L118.214 19.954C117.792 19.5316 117.792 18.8493 118.214 18.3944C118.637 17.972 119.319 17.972 119.773 18.3944L132.569 31.1961C132.991 31.6185 132.991 32.3009 132.569 32.7557C132.342 32.9832 132.082 33.0807 131.79 33.0807Z" fill="#E1E7F7"/>
            <path d="M251.887 78.6339H218.534C206.323 78.6339 196.353 68.6914 196.353 56.4421V23.0731C196.353 10.8563 206.29 0.881348 218.534 0.881348H251.92C264.131 0.881348 274.101 10.8238 274.101 23.0731V56.4421C274.069 68.6589 264.131 78.6339 251.887 78.6339ZM218.534 3.05829C207.524 3.05829 198.561 12.026 198.561 23.0407V56.4421C198.561 67.4567 207.524 76.4244 218.534 76.4244H251.92C262.929 76.4244 271.893 67.4567 271.893 56.4421V23.0731C271.893 12.0585 262.929 3.09078 251.92 3.09078H218.534V3.05829Z" fill="#E1E7F7"/>
            <path d="M235.227 65.4095C221.1 65.4095 209.603 53.9075 209.603 39.7736C209.603 25.6397 221.1 14.1377 235.227 14.1377C249.354 14.1377 260.851 25.6397 260.851 39.7736C260.851 53.9075 249.354 65.4095 235.227 65.4095ZM235.227 16.2821C222.301 16.2821 211.779 26.8094 211.779 39.7411C211.779 52.6728 222.301 63.2001 235.227 63.2001C248.153 63.2001 258.675 52.6728 258.675 39.7411C258.675 26.8094 248.153 16.2821 235.227 16.2821Z" fill="#E1E7F7"/>
            <path d="M217.917 58.7165C217.625 58.7165 217.365 58.619 217.138 58.3916C216.715 57.9692 216.715 57.2868 217.138 56.832L252.05 21.9359C252.472 21.5135 253.154 21.5135 253.609 21.9359C254.031 22.3583 254.031 23.0406 253.609 23.4955L218.697 58.3916C218.502 58.5865 218.209 58.7165 217.917 58.7165Z" fill="#E1E7F7"/>
            <path d="M176.834 185.661H1.55879C0.941737 185.661 0.45459 185.174 0.45459 184.557V78.6664C0.45459 69.7962 7.66436 62.583 16.5304 62.583H161.798C170.664 62.583 177.873 69.7962 177.873 78.6664V184.557C177.938 185.174 177.451 185.661 176.834 185.661ZM2.66299 183.484H175.73V78.6664C175.73 70.9983 169.494 64.76 161.83 64.76H16.5629C8.89846 64.76 2.66299 70.9983 2.66299 78.6664V183.484Z" fill="#E1E7F7"/>
            <path d="M177.321 89.9409H1.1042C0.487147 89.9409 0 89.4535 0 88.8362C0 88.2188 0.487147 87.7314 1.1042 87.7314H177.321C177.938 87.7314 178.426 88.2188 178.426 88.8362C178.426 89.4535 177.906 89.9409 177.321 89.9409Z" fill="#E1E7F7"/>
            <path d="M19.4535 83.2801C15.9461 83.2801 13.1206 80.4209 13.1206 76.9443C13.1206 73.4352 15.9785 70.6084 19.4535 70.6084C22.961 70.6084 25.7864 73.4677 25.7864 76.9443C25.8189 80.4209 22.961 83.2801 19.4535 83.2801ZM19.4535 72.7528C17.1477 72.7528 15.2965 74.6049 15.2965 76.9118C15.2965 79.2187 17.1477 81.0707 19.4535 81.0707C21.7593 81.0707 23.6105 79.2187 23.6105 76.9118C23.6105 74.6049 21.7593 72.7528 19.4535 72.7528Z" fill="#E1E7F7"/>
            <path d="M35.4967 83.2801C31.9893 83.2801 29.1638 80.4209 29.1638 76.9443C29.1638 73.4352 32.0217 70.6084 35.4967 70.6084C39.0042 70.6084 41.8296 73.4677 41.8296 76.9443C41.8296 80.4209 39.0042 83.2801 35.4967 83.2801ZM35.4967 72.7528C33.1909 72.7528 31.3397 74.6049 31.3397 76.9118C31.3397 79.2187 33.1909 81.0707 35.4967 81.0707C37.8026 81.0707 39.6537 79.2187 39.6537 76.9118C39.6537 74.6049 37.8026 72.7528 35.4967 72.7528Z" fill="#E1E7F7"/>
            <path d="M51.5402 83.2801C48.0327 83.2801 45.2073 80.4209 45.2073 76.9443C45.2073 73.4352 48.0652 70.6084 51.5402 70.6084C55.0476 70.6084 57.8731 73.4677 57.8731 76.9443C57.8731 80.4209 55.0152 83.2801 51.5402 83.2801ZM51.5402 72.7528C49.2344 72.7528 47.3832 74.6049 47.3832 76.9118C47.3832 79.2187 49.2344 81.0707 51.5402 81.0707C53.846 81.0707 55.6972 79.2187 55.6972 76.9118C55.6972 74.6049 53.8135 72.7528 51.5402 72.7528Z" fill="#E1E7F7"/>
            <path fill-rule="evenodd" clip-rule="evenodd" d="M100.969 115.447L100.839 115.317C97.4617 111.905 91.9083 111.905 88.4982 115.317L80.6389 123.18C77.2614 126.559 77.2614 132.115 80.6389 135.527L80.7688 135.657C81.0611 135.949 81.3534 136.209 81.6457 136.437L84.5361 133.545C84.2113 133.35 83.8866 133.122 83.5943 132.83L83.4644 132.7C81.6132 130.848 81.6132 127.859 83.4644 126.007L91.3237 118.144C93.1748 116.292 96.1627 116.292 98.0138 118.144L98.1437 118.274C99.9949 120.126 99.9949 123.115 98.1437 124.967L94.5713 128.541C95.1884 130.068 95.4807 131.693 95.4482 133.317L100.937 127.826C104.347 124.382 104.347 118.826 100.969 115.447ZM89.3426 126.787C89.0503 126.494 88.758 126.234 88.4658 126.007L85.5754 128.899C85.9001 129.093 86.2249 129.321 86.5172 129.613L86.6471 129.743C88.4982 131.595 88.4982 134.585 86.6471 136.437L78.7878 144.3C76.9366 146.152 73.9488 146.152 72.0976 144.3L71.9677 144.17C70.1166 142.318 70.1166 139.328 71.9677 137.476L75.5401 133.902C74.9231 132.375 74.6308 130.751 74.6633 129.126L69.1748 134.617C65.7972 138.029 65.7972 143.552 69.1748 146.964L69.3047 147.094C72.6822 150.505 78.2357 150.505 81.6457 147.094L89.505 139.231C92.8826 135.852 92.8826 130.296 89.505 126.884L89.3426 126.787Z" fill="#E1E7F7"/>
      </g>
      <defs>
            <clipPath id="clip0_5356_46657">
                  <rect width="686" height="525" fill="white" transform="translate(0 0.881348)"/>
            </clipPath>
      </defs>
</svg>
